# xmcd
#
# Track frame offsets: 
#        150
#        18566
#        34978
#        52108
#        66515
#        86097
#        102092
#        122378
#        136709
#        152456
#        172646
#        190563
#        208319
#        227935
#        241279
#        256794
#        274036
#        287214
#        300268
#        317109
#        334661
#
# Disc length: 4690 seconds
#
# Revision: 0
# Processed by: cddbd v1.5.1PL0 Copyright (c) Steve Scherf et al.
# Submitted via: ExactAudioCopy v0.95a4
#
DISCID=1e125015
DTITLE=Alison Krauss - The Very Best Of Alison Krauss
DYEAR=1900
DGENRE=Bluegrass
TTITLE0=I Will
TTITLE1=Baby Mine
TTITLE2=Baby, Now That I've Found You (Live)
TTITLE3=The Lucky One
TTITLE4=Whiskey Lullaby (Duet With Brad Paisley)
TTITLE5=Heartstrings
TTITLE6=Dreaming My Dreams With You
TTITLE7=I Don't Believe You've Met My Baby
TTITLE8=I'm Gone
TTITLE9=It Wouldn't Have Made Any Difference
TTITLE10=Broadway
TTITLE11=Happiness
TTITLE12=When You Say Nothing at All
TTITLE13=Lose Again
TTITLE14=Stay
TTITLE15=Jesus Help Me to Stand
TTITLE16=Stars
TTITLE17=And The Angels Cried (Duet With Alan Jackson)
TTITLE18=There is a Reason
TTITLE19=New Favorite
TTITLE20=Baby, Now That I've Found You
EXTD=
EXTT0=
EXTT1=
EXTT2=
EXTT3=
EXTT4=
EXTT5=
EXTT6=
EXTT7=
EXTT8=
EXTT9=
EXTT10=
EXTT11=
EXTT12=
EXTT13=
EXTT14=
EXTT15=
EXTT16=
EXTT17=
EXTT18=
EXTT19=
EXTT20=
PLAYORDER=
